<svg width="20" height="20" viewBox="0 0 20 20" fill="none" xmlns="http://www.w3.org/2000/svg">
<path d="M10 13.7917C11.4444 12.625 12.5347 11.5035 13.2708 10.4271C14.0069 9.35068 14.375 8.34721 14.375 7.41666C14.375 6.59721 14.2257 5.90277 13.9271 5.33332C13.6285 4.76388 13.2604 4.2986 12.8229 3.93749C12.3854 3.57638 11.9097 3.31596 11.3958 3.15624C10.8819 2.99652 10.4167 2.91666 10 2.91666C9.58333 2.91666 9.11806 2.99652 8.60417 3.15624C8.09028 3.31596 7.61458 3.57638 7.17708 3.93749C6.73958 4.2986 6.37153 4.76388 6.07292 5.33332C5.77431 5.90277 5.625 6.59721 5.625 7.41666C5.625 8.34721 5.99306 9.35068 6.72917 10.4271C7.46528 11.5035 8.55556 12.625 10 13.7917ZM10 15.375C8.09722 13.9444 6.68403 12.5764 5.76042 11.2708C4.83681 9.96527 4.375 8.68054 4.375 7.41666C4.375 6.47221 4.54514 5.64235 4.88542 4.92707C5.22569 4.2118 5.66667 3.6111 6.20833 3.12499C6.75 2.63888 7.35417 2.2743 8.02083 2.03124C8.6875 1.78818 9.34722 1.66666 10 1.66666C10.6528 1.66666 11.3125 1.78818 11.9792 2.03124C12.6458 2.2743 13.25 2.63888 13.7917 3.12499C14.3333 3.6111 14.7743 4.2118 15.1146 4.92707C15.4549 5.64235 15.625 6.47221 15.625 7.41666C15.625 8.68054 15.1632 9.96527 14.2396 11.2708C13.316 12.5764 11.9028 13.9444 10 15.375ZM10 8.74999C10.4028 8.74999 10.7465 8.60763 11.0312 8.32291C11.316 8.03818 11.4583 7.69443 11.4583 7.29166C11.4583 6.88888 11.316 6.54513 11.0312 6.26041C10.7465 5.97568 10.4028 5.83332 10 5.83332C9.59722 5.83332 9.25347 5.97568 8.96875 6.26041C8.68403 6.54513 8.54167 6.88888 8.54167 7.29166C8.54167 7.69443 8.68403 8.03818 8.96875 8.32291C9.25347 8.60763 9.59722 8.74999 10 8.74999ZM4.375 18.3333V17.0833H15.625V18.3333H4.375Z" fill="black"/>
</svg>
